# MagicaVoxel @ Ephtracy

# group
o 

# material
mtllib transport_ship.mtl
usemtl palette

# normals
vn -1 0 0
vn 1 0 0
vn 0 0 1
vn 0 0 -1
vn 0 -1 0
vn 0 1 0

# texcoords
vt 0.939453 0.5
vt 0.943359 0.5
vt 0.947266 0.5
vt 0.974609 0.5
vt 0.978516 0.5
vt 0.982422 0.5
vt 0.986328 0.5

# verts
v -0.2 0.8 -0.1
v -0.2 0.8 -0.2
v -0.2 0.8 -0.4
v -0.2 0.8 -0.6
v -0.2 0.9 0.3
v -0.2 0.9 0.1
v -0.2 0.9 -0.1
v -0.2 0.9 -0.2
v -0.2 0.9 -0.5
v -0.2 0.9 -0.6
v -0.2 1 0.3
v -0.2 1 0.1
v -0.2 1 -0.1
v -0.2 1 -0.3
v -0.2 1 -0.4
v -0.2 1.1 -0.1
v -0.2 1.1 -0.3
v -0.2 1.1 -0.5
v -0.2 1.2 -0.1
v -0.2 1.2 -0.6
v -0.1 0.8 0.3
v -0.1 0.8 0.1
v -0.1 0.9 0.3
v -0.1 0.9 0.1
v -0.1 0.9 -2.98023e-08
v -0.1 1 0.3
v -0.1 1 0.2
v -0.1 1 0.1
v -0.1 1 -2.98023e-08
v -0.1 1.1 0.3
v -0.1 1.1 0.2
v -0.1 1.1 0.1
v 2.98023e-08 0.9 -2.98023e-08
v 2.98023e-08 0.9 -0.1
v 2.98023e-08 1 -2.98023e-08
v 2.98023e-08 1 -0.1
v 0.1 0.9 -2.98023e-08
v 0.1 0.9 -0.1
v 0.1 1 -2.98023e-08
v 0.1 1 -0.1
v 0.2 0.8 0.3
v 0.2 0.8 0.1
v 0.2 0.9 0.3
v 0.2 0.9 0.1
v 0.2 0.9 -2.98023e-08
v 0.2 1 0.3
v 0.2 1 0.2
v 0.2 1 0.1
v 0.2 1 -2.98023e-08
v 0.2 1.1 0.3
v 0.2 1.1 0.2
v 0.2 1.1 0.1
v 0.3 0.8 -0.1
v 0.3 0.8 -0.2
v 0.3 0.8 -0.4
v 0.3 0.8 -0.6
v 0.3 0.9 0.3
v 0.3 0.9 0.1
v 0.3 0.9 -0.1
v 0.3 0.9 -0.2
v 0.3 0.9 -0.5
v 0.3 0.9 -0.6
v 0.3 1 0.3
v 0.3 1 0.1
v 0.3 1 -0.1
v 0.3 1 -0.3
v 0.3 1 -0.4
v 0.3 1.1 -0.1
v 0.3 1.1 -0.3
v 0.3 1.1 -0.5
v 0.3 1.2 -0.1
v 0.3 1.2 -0.6
v -0.2 0.9 0.3
v -0.2 1 0.3
v -0.1 0.8 0.3
v -0.1 0.9 0.3
v -0.1 1 0.3
v -0.1 1.1 0.3
v 0.2 0.8 0.3
v 0.2 0.9 0.3
v 0.2 1 0.3
v 0.2 1.1 0.3
v 0.3 0.9 0.3
v 0.3 1 0.3
v -0.2 0.8 -0.1
v -0.2 0.9 -0.1
v -0.2 1 -0.1
v -0.2 1.1 -0.1
v -0.2 1.2 -0.1
v -0.1 0.8 -0.1
v -0.1 0.9 -0.1
v 2.98023e-08 0.9 -0.1
v 2.98023e-08 1 -0.1
v 2.98023e-08 1.1 -0.1
v 2.98023e-08 1.2 -0.1
v 0.1 0.9 -0.1
v 0.1 1 -0.1
v 0.1 1.1 -0.1
v 0.1 1.2 -0.1
v 0.2 0.8 -0.1
v 0.2 0.9 -0.1
v 0.3 0.8 -0.1
v 0.3 0.9 -0.1
v 0.3 1 -0.1
v 0.3 1.1 -0.1
v 0.3 1.2 -0.1
v -0.2 0.9 0.1
v -0.2 1 0.1
v -0.1 0.8 0.1
v -0.1 0.9 0.1
v -0.1 1 0.1
v -0.1 1.1 0.1
v 2.98023e-08 0.9 0.1
v 2.98023e-08 1 0.1
v 0.1 0.9 0.1
v 0.1 1 0.1
v 0.2 0.8 0.1
v 0.2 0.9 0.1
v 0.2 1 0.1
v 0.2 1.1 0.1
v 0.3 0.9 0.1
v 0.3 1 0.1
v -0.1 0.9 -2.98023e-08
v -0.1 1 -2.98023e-08
v 2.98023e-08 0.9 -2.98023e-08
v 2.98023e-08 1 -2.98023e-08
v 0.1 0.9 -2.98023e-08
v 0.1 1 -2.98023e-08
v 0.2 0.9 -2.98023e-08
v 0.2 1 -2.98023e-08
v -0.2 0.8 -0.6
v -0.2 0.9 -0.6
v -0.2 1.2 -0.6
v -0.1 0.8 -0.6
v -0.1 0.9 -0.6
v -0.1 1 -0.6
v -0.1 1.1 -0.6
v 2.98023e-08 1.1 -0.6
v 2.98023e-08 1.2 -0.6
v 0.1 1.1 -0.6
v 0.1 1.2 -0.6
v 0.2 0.8 -0.6
v 0.2 0.9 -0.6
v 0.2 1 -0.6
v 0.2 1.1 -0.6
v 0.3 0.8 -0.6
v 0.3 0.9 -0.6
v 0.3 1.2 -0.6
v -0.1 0.8 0.3
v 0.2 0.8 0.3
v -0.1 0.8 0.1
v 0.2 0.8 0.1
v -0.2 0.8 -0.1
v -0.1 0.8 -0.1
v 0.2 0.8 -0.1
v 0.3 0.8 -0.1
v -0.2 0.8 -0.2
v -0.1 0.8 -0.2
v 0.2 0.8 -0.2
v 0.3 0.8 -0.2
v -0.2 0.8 -0.4
v -0.1 0.8 -0.4
v 0.2 0.8 -0.4
v 0.3 0.8 -0.4
v -0.1 0.8 -0.5
v 0.2 0.8 -0.5
v -0.2 0.8 -0.6
v -0.1 0.8 -0.6
v 0.2 0.8 -0.6
v 0.3 0.8 -0.6
v -0.2 0.9 0.3
v -0.1 0.9 0.3
v 0.2 0.9 0.3
v 0.3 0.9 0.3
v -0.2 0.9 0.1
v -0.1 0.9 0.1
v 2.98023e-08 0.9 0.1
v 0.1 0.9 0.1
v 0.2 0.9 0.1
v 0.3 0.9 0.1
v -0.1 0.9 -2.98023e-08
v 2.98023e-08 0.9 -2.98023e-08
v 0.1 0.9 -2.98023e-08
v 0.2 0.9 -2.98023e-08
v 2.98023e-08 0.9 -0.1
v 0.1 0.9 -0.1
v -0.2 1 0.3
v -0.1 1 0.3
v 0.2 1 0.3
v 0.3 1 0.3
v -0.1 1 0.2
v 0.2 1 0.2
v -0.2 1 0.1
v -0.1 1 0.1
v 2.98023e-08 1 0.1
v 0.1 1 0.1
v 0.2 1 0.1
v 0.3 1 0.1
v -0.1 1 -2.98023e-08
v 2.98023e-08 1 -2.98023e-08
v 0.1 1 -2.98023e-08
v 0.2 1 -2.98023e-08
v 2.98023e-08 1 -0.1
v 0.1 1 -0.1
v -0.1 1.1 0.3
v 0.2 1.1 0.3
v -0.1 1.1 0.2
v 0.2 1.1 0.2
v -0.1 1.1 0.1
v 0.2 1.1 0.1
v -0.2 1.2 -0.1
v 2.98023e-08 1.2 -0.1
v 0.1 1.2 -0.1
v 0.3 1.2 -0.1
v 2.98023e-08 1.2 -0.2
v 0.1 1.2 -0.2
v -0.2 1.2 -0.6
v 2.98023e-08 1.2 -0.6
v 0.1 1.2 -0.6
v 0.3 1.2 -0.6

# faces
f 7/2/1 2/2/1 1/2/1
f 8/4/1 3/4/1 2/4/1
f 8/2/1 2/2/1 7/2/1
f 9/7/1 4/7/1 3/7/1
f 10/7/1 4/7/1 9/7/1
f 11/7/1 6/7/1 5/7/1
f 12/7/1 6/7/1 11/7/1
f 13/4/1 8/4/1 7/4/1
f 14/4/1 3/4/1 8/4/1
f 14/4/1 8/4/1 13/4/1
f 15/7/1 9/7/1 3/7/1
f 15/4/1 3/4/1 14/4/1
f 16/6/1 14/6/1 13/6/1
f 17/7/1 15/7/1 14/7/1
f 17/6/1 14/6/1 16/6/1
f 18/7/1 9/7/1 15/7/1
f 18/7/1 15/7/1 17/7/1
f 18/4/1 10/4/1 9/4/1
f 19/4/1 17/4/1 16/4/1
f 19/4/1 18/4/1 17/4/1
f 20/4/1 10/4/1 18/4/1
f 20/4/1 18/4/1 19/4/1
f 23/7/1 22/7/1 21/7/1
f 24/7/1 22/7/1 23/7/1
f 28/7/1 25/7/1 24/7/1
f 29/7/1 25/7/1 28/7/1
f 30/4/1 27/4/1 26/4/1
f 31/6/1 28/6/1 27/6/1
f 31/4/1 27/4/1 30/4/1
f 32/6/1 28/6/1 31/6/1
f 35/6/1 34/6/1 33/6/1
f 36/6/1 34/6/1 35/6/1
f 37/6/2 38/6/2 39/6/2
f 39/6/2 38/6/2 40/6/2
f 41/7/2 42/7/2 43/7/2
f 43/7/2 42/7/2 44/7/2
f 44/7/2 45/7/2 48/7/2
f 48/7/2 45/7/2 49/7/2
f 46/4/2 47/4/2 50/4/2
f 47/6/2 48/6/2 51/6/2
f 50/4/2 47/4/2 51/4/2
f 51/6/2 48/6/2 52/6/2
f 53/2/2 54/2/2 59/2/2
f 54/4/2 55/4/2 60/4/2
f 59/2/2 54/2/2 60/2/2
f 55/7/2 56/7/2 61/7/2
f 61/7/2 56/7/2 62/7/2
f 57/7/2 58/7/2 63/7/2
f 63/7/2 58/7/2 64/7/2
f 59/4/2 60/4/2 65/4/2
f 60/4/2 55/4/2 66/4/2
f 65/4/2 60/4/2 66/4/2
f 55/7/2 61/7/2 67/7/2
f 66/4/2 55/4/2 67/4/2
f 65/6/2 66/6/2 68/6/2
f 66/7/2 67/7/2 69/7/2
f 68/6/2 66/6/2 69/6/2
f 67/7/2 61/7/2 70/7/2
f 69/7/2 67/7/2 70/7/2
f 61/4/2 62/4/2 70/4/2
f 68/4/2 69/4/2 71/4/2
f 69/4/2 70/4/2 71/4/2
f 70/4/2 62/4/2 72/4/2
f 71/4/2 70/4/2 72/4/2
f 76/7/3 74/7/3 73/7/3
f 77/7/3 74/7/3 76/7/3
f 79/7/3 76/7/3 75/7/3
f 80/5/3 77/5/3 76/5/3
f 80/7/3 76/7/3 79/7/3
f 81/4/3 78/4/3 77/4/3
f 81/5/3 77/5/3 80/5/3
f 82/4/3 78/4/3 81/4/3
f 83/7/3 81/7/3 80/7/3
f 84/7/3 81/7/3 83/7/3
f 90/2/3 86/2/3 85/2/3
f 91/4/3 87/4/3 86/4/3
f 91/2/3 86/2/3 90/2/3
f 92/4/3 91/4/3 90/4/3
f 92/4/3 87/4/3 91/4/3
f 93/6/3 88/6/3 87/6/3
f 93/4/3 87/4/3 92/4/3
f 94/4/3 89/4/3 88/4/3
f 94/6/3 88/6/3 93/6/3
f 95/4/3 89/4/3 94/4/3
f 96/4/3 92/4/3 90/4/3
f 97/6/3 95/6/3 94/6/3
f 97/6/3 94/6/3 93/6/3
f 98/6/3 95/6/3 97/6/3
f 99/6/3 95/6/3 98/6/3
f 100/4/3 96/4/3 90/4/3
f 100/4/3 97/4/3 96/4/3
f 101/4/3 97/4/3 100/4/3
f 102/2/3 101/2/3 100/2/3
f 103/4/3 97/4/3 101/4/3
f 103/2/3 101/2/3 102/2/3
f 104/6/3 98/6/3 97/6/3
f 104/4/3 97/4/3 103/4/3
f 105/4/3 99/4/3 98/4/3
f 105/6/3 98/6/3 104/6/3
f 106/4/3 99/4/3 105/4/3
f 107/7/4 108/7/4 110/7/4
f 110/7/4 108/7/4 111/7/4
f 109/7/4 110/7/4 113/7/4
f 111/6/4 112/6/4 114/6/4
f 109/7/4 113/7/4 115/7/4
f 114/6/4 112/6/4 116/6/4
f 109/7/4 115/7/4 117/7/4
f 117/7/4 115/7/4 118/7/4
f 116/6/4 112/6/4 119/6/4
f 119/6/4 112/6/4 120/6/4
f 118/7/4 119/7/4 121/7/4
f 121/7/4 119/7/4 122/7/4
f 123/7/4 124/7/4 125/7/4
f 125/7/4 124/7/4 126/7/4
f 127/7/4 128/7/4 129/7/4
f 129/7/4 128/7/4 130/7/4
f 131/7/4 132/7/4 134/7/4
f 132/4/4 133/4/4 135/4/4
f 134/7/4 132/7/4 135/7/4
f 135/4/4 133/4/4 136/4/4
f 136/4/4 133/4/4 137/4/4
f 136/1/4 137/1/4 138/1/4
f 137/4/4 133/4/4 138/4/4
f 138/4/4 133/4/4 139/4/4
f 136/1/4 138/1/4 140/1/4
f 138/7/4 139/7/4 140/7/4
f 140/7/4 139/7/4 141/7/4
f 134/6/4 135/6/4 142/6/4
f 135/4/4 136/4/4 143/4/4
f 142/6/4 135/6/4 143/6/4
f 136/1/4 140/1/4 144/1/4
f 143/4/4 136/4/4 144/4/4
f 140/4/4 141/4/4 145/4/4
f 144/1/4 140/1/4 145/1/4
f 142/7/4 143/7/4 146/7/4
f 143/4/4 144/4/4 147/4/4
f 146/7/4 143/7/4 147/7/4
f 144/4/4 145/4/4 147/4/4
f 145/4/4 141/4/4 148/4/4
f 147/4/4 145/4/4 148/4/4
f 151/7/5 150/7/5 149/7/5
f 152/7/5 150/7/5 151/7/5
f 157/2/5 154/2/5 153/2/5
f 158/4/5 155/4/5 154/4/5
f 158/2/5 154/2/5 157/2/5
f 159/2/5 156/2/5 155/2/5
f 159/4/5 155/4/5 158/4/5
f 160/2/5 156/2/5 159/2/5
f 161/4/5 158/4/5 157/4/5
f 161/4/5 159/4/5 158/4/5
f 161/4/5 160/4/5 159/4/5
f 162/4/5 160/4/5 161/4/5
f 163/4/5 160/4/5 162/4/5
f 164/4/5 160/4/5 163/4/5
f 165/7/5 162/7/5 161/7/5
f 165/4/5 163/4/5 162/4/5
f 166/7/5 164/7/5 163/7/5
f 166/4/5 163/4/5 165/4/5
f 167/7/5 165/7/5 161/7/5
f 168/6/5 166/6/5 165/6/5
f 168/7/5 165/7/5 167/7/5
f 169/7/5 164/7/5 166/7/5
f 169/6/5 166/6/5 168/6/5
f 170/7/5 164/7/5 169/7/5
f 175/7/5 172/7/5 171/7/5
f 176/7/5 172/7/5 175/7/5
f 179/7/5 174/7/5 173/7/5
f 180/7/5 174/7/5 179/7/5
f 181/7/5 177/7/5 176/7/5
f 182/6/5 178/6/5 177/6/5
f 182/7/5 177/7/5 181/7/5
f 183/7/5 179/7/5 178/7/5
f 183/6/5 178/6/5 182/6/5
f 184/7/5 179/7/5 183/7/5
f 185/6/5 183/6/5 182/6/5
f 186/6/5 183/6/5 185/6/5
f 187/7/6 188/7/6 191/7/6
f 189/7/6 190/7/6 192/7/6
f 187/7/6 191/7/6 193/7/6
f 193/7/6 191/7/6 194/7/6
f 192/7/6 190/7/6 197/7/6
f 197/7/6 190/7/6 198/7/6
f 194/7/6 195/7/6 199/7/6
f 195/6/6 196/6/6 200/6/6
f 199/7/6 195/7/6 200/7/6
f 196/7/6 197/7/6 201/7/6
f 200/6/6 196/6/6 201/6/6
f 201/7/6 197/7/6 202/7/6
f 200/6/6 201/6/6 203/6/6
f 203/6/6 201/6/6 204/6/6
f 205/4/6 206/4/6 207/4/6
f 207/4/6 206/4/6 208/4/6
f 207/6/6 208/6/6 209/6/6
f 209/6/6 208/6/6 210/6/6
f 211/4/6 212/4/6 215/4/6
f 212/6/6 213/6/6 215/6/6
f 213/4/6 214/4/6 216/4/6
f 215/6/6 213/6/6 216/6/6
f 211/4/6 215/4/6 217/4/6
f 215/7/6 216/7/6 218/7/6
f 217/4/6 215/4/6 218/4/6
f 216/4/6 214/4/6 219/4/6
f 218/7/6 216/7/6 219/7/6
f 219/4/6 214/4/6 220/4/6
